<svg width="441" height="397" viewBox="0 0 441 397" fill="none" xmlns="http://www.w3.org/2000/svg">
<g filter="url(#filter0_f)">
<path d="M331.44 104.964C357.332 134.491 342.616 172.27 331.44 216.158C323.058 249.078 323.827 290.568 305.828 306.352C263.831 343.179 178.578 314.635 133.264 262.96C96.4379 220.963 100.629 157.064 142.626 120.238C184.623 83.4109 294.614 62.9666 331.44 104.964Z" fill="url(#paint0_radial)"/>
</g>
<g filter="url(#filter1_d)">
<g filter="url(#filter2_b)">
<circle cx="199.012" cy="188.22" r="148.074" fill="#D5F5FF" fill-opacity="0.2"/>
</g>
</g>
<g filter="url(#filter3_d)">
<path d="M199.5 38.0328C219.133 38.0328 238.573 41.8997 256.711 49.4128C274.849 56.9259 291.33 67.938 305.212 81.8203C319.095 95.7027 330.107 112.183 337.62 130.322C345.133 148.46 349 167.9 349 187.533C349 207.165 345.133 226.606 337.62 244.744C330.107 262.882 319.095 279.363 305.212 293.245C291.33 307.128 274.849 318.14 256.711 325.653C238.573 333.166 219.133 337.033 199.5 337.033C179.867 337.033 160.427 333.166 142.289 325.653C124.151 318.14 107.67 307.128 93.7875 293.245C79.9051 279.363 68.8931 262.882 61.38 244.744C53.8669 226.606 50 207.165 50 187.533C50 167.9 53.867 148.46 61.38 130.322C68.8931 112.183 79.9052 95.7026 93.7876 81.8203C107.67 67.9379 124.151 56.9258 142.289 49.4128C160.427 41.8997 179.867 38.0328 199.5 38.0328L199.5 38.0328Z" stroke="white" stroke-width="2"/>
</g>
<g filter="url(#filter4_d)">
<circle cx="199" cy="185.033" r="6" fill="white"/>
<circle cx="199" cy="185.033" r="5.75" stroke="black" stroke-opacity="0.5" stroke-width="0.5"/>
</g>
<path d="M40.9611 191.367C39.0109 191.355 37.3843 192.757 37.1463 194.675C36.8861 196.712 38.1871 198.523 40.3875 198.846C42.4694 199.146 44.4155 197.531 44.6539 195.468C44.8975 193.345 43.1993 191.392 40.9611 191.367ZM40.3127 199.851C37.7615 199.546 35.9029 197.218 36.1728 194.651C36.4223 192.18 38.4936 190.371 40.972 190.405C43.7382 190.451 45.8557 192.85 45.5865 195.549C45.3235 198.176 42.9357 200.162 40.3127 199.851ZM41.8756 180.778C39.9254 180.766 38.2988 182.167 38.0608 184.086C37.8006 186.123 39.1016 187.934 41.302 188.256C43.3839 188.556 45.3301 186.942 45.5685 184.879C45.812 182.756 44.1138 180.802 41.8756 180.778ZM41.2273 189.261C38.676 188.957 36.8175 186.628 37.0873 184.062C37.3369 181.59 39.4082 179.782 41.8865 179.815C44.6528 179.861 46.7702 182.26 46.501 184.959C46.238 187.586 43.8502 189.572 41.2273 189.261ZM46.1079 179.05C45.1405 178.955 45.3024 177.499 46.2687 177.607C47.2361 177.703 47.0862 179.159 46.1079 179.05ZM44.195 178.885C43.2277 178.79 43.3775 177.333 44.3558 177.442C45.3232 177.537 45.1614 178.993 44.195 178.885ZM39.3668 170.497L39.0767 173.857L41.2002 174.233C40.9358 173.668 40.8207 173.189 40.8904 172.52C41.0822 170.718 42.6028 169.428 44.3774 169.521C46.2606 169.611 47.6847 171.252 47.5294 173.19C47.3725 175.007 45.8618 176.322 44.2156 176.276L44.3044 175.248C45.4775 175.193 46.4568 174.314 46.574 173.095C46.7177 171.71 45.5912 170.529 44.2449 170.497C42.9824 170.472 41.9231 171.441 41.8038 172.683C41.7336 173.496 42.0952 174.19 42.5196 174.576L41.994 175.362L38.0818 174.638L38.4462 170.418L39.3668 170.497ZM40.8108 166.608C40.0529 166.458 39.5546 165.813 39.6196 165.06C39.6805 164.354 40.2722 163.779 40.9729 163.755C42.1808 163.715 42.4091 164.698 42.5168 164.985L43.282 165.051C43.4992 164.07 44.3751 163.411 45.3924 163.487C46.4694 163.568 47.2569 164.491 47.2248 165.56C47.2026 166.654 46.1625 167.54 45.0626 167.445L44.98 168.401C46.607 168.53 48.0835 167.332 48.1792 165.667C48.2827 164.049 47.0572 162.619 45.4422 162.491C44.3303 162.395 43.473 162.839 42.8924 163.704C42.4008 163.12 41.8507 162.795 41.0685 162.788C39.8517 162.791 38.7934 163.748 38.7089 165.005C38.6224 166.287 39.4952 167.338 40.7324 167.517L40.8108 166.608Z" fill="#949494"/>
<path d="M317.197 116.712C318.09 118.575 320.465 119.338 322.276 118.296C323.991 117.304 324.637 115.141 323.578 113.326L317.197 116.712ZM322.768 119.121C320.518 120.411 317.643 119.6 316.355 117.173L315.882 116.282L323.927 112.013L324.422 112.946C325.744 115.437 324.785 117.956 322.768 119.121ZM320.427 122.799C321.32 124.661 323.695 125.425 325.506 124.383C327.221 123.391 327.867 121.228 326.808 119.412L320.427 122.799ZM325.998 125.208C323.748 126.497 320.873 125.687 319.585 123.259L319.112 122.369L327.157 118.1L327.652 119.032C328.974 121.523 328.015 124.043 325.998 125.208ZM323.589 128.758L324.928 131.281L324.08 131.731L322.275 128.328L330.32 124.059L330.787 124.939L323.589 128.758Z" fill="white"/>
<path d="M285.7 303.55C287.287 302.227 287.444 299.737 285.989 298.237C284.607 296.818 282.351 296.723 280.851 298.195L285.7 303.55ZM286.668 297.557C288.471 299.422 288.39 302.409 286.354 304.253L285.606 304.93L279.493 298.179L280.275 297.47C282.366 295.577 285.043 295.888 286.668 297.557ZM290.808 298.925C292.394 297.601 292.552 295.111 291.097 293.612C289.714 292.193 287.459 292.098 285.959 293.57L290.808 298.925ZM291.776 292.932C293.578 294.797 293.498 297.784 291.461 299.628L290.714 300.305L284.6 293.554L285.383 292.845C287.473 290.952 290.151 291.263 291.776 292.932ZM295.809 294.396L297.926 292.479L298.57 293.191L295.715 295.776L289.601 289.025L290.339 288.356L295.809 294.396Z" fill="white"/>
<g filter="url(#filter5_d)">
<path d="M199.5 37.5328C219.198 37.5328 238.704 41.4126 256.903 48.9508C275.101 56.4891 291.637 67.538 305.566 81.4668C319.495 95.3956 330.544 111.931 338.082 130.13C345.62 148.329 349.5 167.835 349.5 187.533C349.5 207.231 345.62 226.736 338.082 244.935C330.544 263.134 319.495 279.67 305.566 293.599C291.637 307.528 275.101 318.577 256.902 326.115C238.704 333.653 219.198 337.533 199.5 337.533C179.802 337.533 160.296 333.653 142.097 326.115C123.899 318.576 107.363 307.528 93.4339 293.599C79.5052 279.67 68.4562 263.134 60.918 244.935C53.3798 226.736 49.5 207.231 49.5 187.533C49.5 167.834 53.3799 148.329 60.9181 130.13C68.4563 111.931 79.5052 95.3955 93.434 81.4667C107.363 67.5379 123.899 56.489 142.098 48.9508C160.296 41.4126 179.802 37.5328 199.5 37.5328L199.5 37.5328Z" stroke="url(#paint1_linear)" stroke-opacity="0.5"/>
</g>
<g filter="url(#filter6_d)">
<circle cx="51" cy="206.033" r="6" fill="white"/>
<circle cx="51" cy="206.033" r="5.75" stroke="black" stroke-opacity="0.5" stroke-width="0.5"/>
</g>
<defs>
<filter id="filter0_f" x="46.584" y="0" width="393.554" height="393.032" filterUnits="userSpaceOnUse" color-interpolation-filters="sRGB">
<feFlood flood-opacity="0" result="BackgroundImageFix"/>
<feBlend mode="normal" in="SourceGraphic" in2="BackgroundImageFix" result="shape"/>
<feGaussianBlur stdDeviation="10" result="effect1_foregroundBlur"/>
</filter>
<filter id="filter1_d" x="0.938477" y="0.146545" width="396.147" height="396.147" filterUnits="userSpaceOnUse" color-interpolation-filters="sRGB">
<feFlood flood-opacity="0" result="BackgroundImageFix"/>
<feColorMatrix in="SourceAlpha" type="matrix" values="0 0 0 0 0 0 0 0 0 0 0 0 0 0 0 0 0 0 127 0"/>
<feOffset dy="10"/>
<feGaussianBlur stdDeviation="25"/>
<feColorMatrix type="matrix" values="0 0 0 0 0 0 0 0 0 0 0 0 0 0 0 0 0 0 0.05 0"/>
<feBlend mode="normal" in2="BackgroundImageFix" result="effect1_dropShadow"/>
<feBlend mode="normal" in="SourceGraphic" in2="effect1_dropShadow" result="shape"/>
</filter>
<filter id="filter2_b" x="-19.0615" y="-29.8535" width="436.147" height="436.147" filterUnits="userSpaceOnUse" color-interpolation-filters="sRGB">
<feFlood flood-opacity="0" result="BackgroundImageFix"/>
<feGaussianBlur in="BackgroundImage" stdDeviation="35"/>
<feComposite in2="SourceAlpha" operator="in" result="effect1_backgroundBlur"/>
<feBlend mode="normal" in="SourceGraphic" in2="effect1_backgroundBlur" result="shape"/>
</filter>
<filter id="filter3_d" x="44" y="35.0328" width="311" height="311" filterUnits="userSpaceOnUse" color-interpolation-filters="sRGB">
<feFlood flood-opacity="0" result="BackgroundImageFix"/>
<feColorMatrix in="SourceAlpha" type="matrix" values="0 0 0 0 0 0 0 0 0 0 0 0 0 0 0 0 0 0 127 0"/>
<feOffset dy="3"/>
<feGaussianBlur stdDeviation="2.5"/>
<feColorMatrix type="matrix" values="0 0 0 0 0 0 0 0 0 0 0 0 0 0 0 0 0 0 0.15 0"/>
<feBlend mode="normal" in2="BackgroundImageFix" result="effect1_dropShadow"/>
<feBlend mode="normal" in="SourceGraphic" in2="effect1_dropShadow" result="shape"/>
</filter>
<filter id="filter4_d" x="191.5" y="178.533" width="16" height="16" filterUnits="userSpaceOnUse" color-interpolation-filters="sRGB">
<feFlood flood-opacity="0" result="BackgroundImageFix"/>
<feColorMatrix in="SourceAlpha" type="matrix" values="0 0 0 0 0 0 0 0 0 0 0 0 0 0 0 0 0 0 127 0"/>
<feOffset dx="0.5" dy="1.5"/>
<feGaussianBlur stdDeviation="1"/>
<feColorMatrix type="matrix" values="0 0 0 0 0 0 0 0 0 0 0 0 0 0 0 0 0 0 0.5 0"/>
<feBlend mode="normal" in2="BackgroundImageFix" result="effect1_dropShadow"/>
<feBlend mode="normal" in="SourceGraphic" in2="effect1_dropShadow" result="shape"/>
</filter>
<filter id="filter5_d" x="44" y="35.0328" width="311" height="311" filterUnits="userSpaceOnUse" color-interpolation-filters="sRGB">
<feFlood flood-opacity="0" result="BackgroundImageFix"/>
<feColorMatrix in="SourceAlpha" type="matrix" values="0 0 0 0 0 0 0 0 0 0 0 0 0 0 0 0 0 0 127 0"/>
<feOffset dy="3"/>
<feGaussianBlur stdDeviation="2.5"/>
<feColorMatrix type="matrix" values="0 0 0 0 0 0 0 0 0 0 0 0 0 0 0 0 0 0 0.15 0"/>
<feBlend mode="normal" in2="BackgroundImageFix" result="effect1_dropShadow"/>
<feBlend mode="normal" in="SourceGraphic" in2="effect1_dropShadow" result="shape"/>
</filter>
<filter id="filter6_d" x="43.5" y="199.533" width="16" height="16" filterUnits="userSpaceOnUse" color-interpolation-filters="sRGB">
<feFlood flood-opacity="0" result="BackgroundImageFix"/>
<feColorMatrix in="SourceAlpha" type="matrix" values="0 0 0 0 0 0 0 0 0 0 0 0 0 0 0 0 0 0 127 0"/>
<feOffset dx="0.5" dy="1.5"/>
<feGaussianBlur stdDeviation="1"/>
<feColorMatrix type="matrix" values="0 0 0 0 0 0 0 0 0 0 0 0 0 0 0 0 0 0 0.5 0"/>
<feBlend mode="normal" in2="BackgroundImageFix" result="effect1_dropShadow"/>
<feBlend mode="normal" in="SourceGraphic" in2="effect1_dropShadow" result="shape"/>
</filter>
<radialGradient id="paint0_radial" cx="0" cy="0" r="1" gradientUnits="userSpaceOnUse" gradientTransform="translate(135.871 161.958) rotate(17.4472) scale(205 185.858)">
<stop stop-color="#BFE0FF"/>
<stop offset="0.76157" stop-color="#FFC0C0"/>
<stop offset="1" stop-color="#FF3C3C"/>
</radialGradient>
<linearGradient id="paint1_linear" x1="199.5" y1="37.0328" x2="199.5" y2="338.033" gradientUnits="userSpaceOnUse">
<stop/>
<stop offset="0.442708"/>
<stop offset="0.526042"/>
<stop offset="0.630208" stop-opacity="0"/>
<stop offset="0.703125" stop-opacity="0"/>
<stop offset="0.828125" stop-opacity="0"/>
<stop offset="1" stop-opacity="0"/>
</linearGradient>
</defs>
</svg>
