<svg width="1281" height="16516" viewBox="0 0 1281 16516" fill="none" xmlns="http://www.w3.org/2000/svg">
<path d="M0.5 0.5H382.12V656.121L0.5 836.211V0.5Z" fill="white" stroke="black"/>
<path d="M1026 297.428L1280.08 1V1071L1026 723.616V297.428Z" fill="#3A3A3A"/>
<path d="M871 1449.71L1279.53 1258V1950L871 1725.34V1449.71Z" fill="#C4C4C4"/>
<path d="M393.581 16027.1L1.85884e-05 15959.4V16516L393.581 16407V16027.1Z" fill="white"/>
<path d="M0 15959.4L393.581 16027.2L0 15899V15959.4Z" fill="black"/>
<path d="M0 963L291.947 1069.04V2317.47L0 2411V963Z" fill="#6A6A6A"/>
<path d="M0.996414 4672L328.814 4348.28L0.996414 4268V4672Z" fill="white" stroke="#9E9E9E"/>
<path d="M0 3055L328.814 3504.23V4348L0 4265.89V3055Z" fill="#302F2F"/>
<mask id="path-9-inside-1" fill="white">
<path fill-rule="evenodd" clip-rule="evenodd" d="M1280.46 2418L832 2947.66L1280.46 3564V3121.75V2418ZM1213.88 2854.55L1080.06 2781.06L975.483 2926.96L1117 2992.44L1213.88 2854.55Z"/>
</mask>
<path fill-rule="evenodd" clip-rule="evenodd" d="M1280.46 2418L832 2947.66L1280.46 3564V3121.75V2418ZM1213.88 2854.55L1080.06 2781.06L975.483 2926.96L1117 2992.44L1213.88 2854.55Z" fill="white"/>
<path d="M831.638 2948.6L1280.1 3122.68L1280.82 3120.82L832.362 2946.73L831.638 2948.6ZM832 2947.66L830.474 2946.37L829.459 2947.57L830.383 2948.84L832 2947.66ZM1280.46 2418H1282.46V2412.54L1278.93 2416.71L1280.46 2418ZM1280.46 3564L1278.84 3565.18L1282.46 3570.15V3564H1280.46ZM1080.06 2781.06L1081.02 2779.31L1079.47 2778.45L1078.43 2779.89L1080.06 2781.06ZM1213.88 2854.55L1215.52 2855.7L1216.8 2853.87L1214.85 2852.8L1213.88 2854.55ZM975.483 2926.96L973.857 2925.8L972.449 2927.76L974.643 2928.78L975.483 2926.96ZM1117 2992.44L1116.16 2994.25L1117.67 2994.95L1118.63 2993.59L1117 2992.44ZM833.526 2948.96L1281.98 2419.29L1278.93 2416.71L830.474 2946.37L833.526 2948.96ZM1282.08 3562.82L833.617 2946.49L830.383 2948.84L1278.84 3565.18L1282.08 3562.82ZM1278.46 3121.75V3564H1282.46V3121.75H1278.46ZM1278.46 2418V3121.75H1282.46V2418H1278.46ZM1079.09 2782.81L1212.92 2856.31L1214.85 2852.8L1081.02 2779.31L1079.09 2782.81ZM977.108 2928.13L1081.68 2782.22L1078.43 2779.89L973.857 2925.8L977.108 2928.13ZM1117.84 2990.62L976.322 2925.15L974.643 2928.78L1116.16 2994.25L1117.84 2990.62ZM1212.25 2853.4L1115.36 2991.29L1118.63 2993.59L1215.52 2855.7L1212.25 2853.4Z" fill="black" mask="url(#path-9-inside-1)"/>
<path d="M1077.07 2781.06L1210.89 2854.55L1114.01 2992.44L972.493 2926.96L1077.07 2781.06Z" fill="#696969"/>
<path d="M1279 11540.4L588.118 10787.3L1279 10999.7V11540.4ZM1279 10997.6L586.832 10784.8L1279 10135.8V10997.6Z" fill="white" stroke="black" stroke-width="2"/>
<path d="M1268.92 11425L765.239 10864L1268.92 11037L1268.92 11425Z" fill="black" stroke="white"/>
<path d="M1.99281 5055L754.28 5230L447.885 6173.5L1.99281 6474.5V5614.5V5055Z" fill="url(#paint0_linear)"/>
<path d="M754.28 5230L1.99281 5055V5614.5M754.28 5230L1.99281 5614.5M754.28 5230L447.885 6173.5L1.99281 6474.5V5614.5" stroke="url(#paint1_angular)" stroke-width="2"/>
<path d="M1.99281 5055L754.28 5230L447.885 6173.5L1.99281 6474.5V5614.5V5055Z" fill="#EDEDED"/>
<path d="M754.28 5230L1.99281 5055V5614.5M754.28 5230L1.99281 5614.5M754.28 5230L447.885 6173.5L1.99281 6474.5V5614.5" stroke="black" stroke-width="2"/>
<path d="M861 6152.27L1280.49 5796V7082L861 6664.49V6152.27Z" fill="#525252"/>
<path fill-rule="evenodd" clip-rule="evenodd" d="M768.23 7414L1.99281 7070V7769.59L2.1429 7769.57L695.642 7661.57L701.988 7660.58V7667V7817V7820.58L698.715 7822.03L5.21558 8129.03L1.99281 8130.46V8169L768.23 7807V7414ZM8.48922 8115.55V7779.71L690.988 7673.42V7813.42L8.48922 8115.55Z" fill="#E0E0E0"/>
<path d="M2.98923 7141.5L69.7485 7175V7443.5L2.98923 7428.5V7141.5Z" fill="black"/>
<path d="M99.6407 7187L166.4 7212.11V7465L99.6407 7450.65V7187Z" fill="black"/>
<path d="M2.98923 7450.5L69.7485 7465V7732.5L2.98923 7741.5V7450.5Z" fill="black"/>
<path d="M99.6407 7472L166.4 7484.76V7720.08L99.6407 7728V7472Z" fill="black"/>
<path d="M0 13416.5L454.362 13627V14376L0 14609.5V13416.5Z" fill="white"/>
<path d="M11.4641 13652.4V13463.8L395.648 13627V13763.5L11.4641 13652.4Z" fill="#F1F1F1" stroke="black" stroke-width="3"/>
<path d="M12.4605 13940V13713L396.645 13815.7V13954.9L12.4605 13940Z" fill="#F1F1F1" stroke="black" stroke-width="3"/>
<path d="M217.747 14319.1L11.4641 14420.1V14173.1L217.747 14184.5V14319.1Z" fill="#F1F1F1" stroke="black" stroke-width="3"/>
<path d="M1280.21 12990.5L1062 12927.5V12202.5L1280.21 12140V12990.5Z" fill="white"/>
<path d="M1280.21 12939.5L1189.23 12910V12770.5L1280.21 12793V12939.5Z" fill="black"/>
<path d="M1280.21 12752.5L1189.23 12732.5V12591L1280.21 12606V12752.5Z" fill="black"/>
<path d="M1280.21 12565.5L1189.23 12554V12413.5L1280.21 12402L1280.21 12565.5Z" fill="black"/>
<path fill-rule="evenodd" clip-rule="evenodd" d="M230.17 10781L0 10718V10769L95.9719 10798.5V10938L0 10915.5V10956L95.9719 10976V11117.5L0 11102.5V11143L95.9719 11154.5V11295L0 11306.5V11568.5L230.17 11506V10781Z" fill="white"/>
<path d="M0 10770L95.9719 10799.5V10939L0 10916.5V10770Z" fill="#787878"/>
<path d="M0 10957L95.9719 10977V11118.5L0 11103.5V10957Z" fill="#787878"/>
<path d="M0 11144L95.9719 11155.5V11296L0 11307.5L0 11144Z" fill="#787878"/>
<path fill-rule="evenodd" clip-rule="evenodd" d="M230.17 9760L0 9697V9748L95.9719 9777.5V9917L0 9894.5V9935L95.9719 9955V10096.5L0 10081.5V10122L95.9719 10133.5V10274L0 10285.5V10547.5L230.17 10485V9760Z" fill="white"/>
<path d="M0 9749L95.9719 9778.5V9918L0 9895.5V9749Z" fill="white"/>
<path d="M0 9936L95.9719 9956V10097.5L0 10082.5V9936Z" fill="white"/>
<path d="M0 10123L95.9719 10134.5V10275L0 10286.5L0 10123Z" fill="white"/>
<path fill-rule="evenodd" clip-rule="evenodd" d="M230.17 11802L0 11739V11790L95.9719 11819.5V11959L0 11936.5V11977L95.9719 11997V12138.5L0 12123.5V12164L95.9719 12175.5V12316L0 12327.5V12589.5L230.17 12527V11802Z" fill="white"/>
<path d="M0 11791L95.9719 11820.5V11960L0 11937.5V11791Z" fill="black"/>
<path d="M0 11978L95.9719 11998V12139.5L0 12124.5V11978Z" fill="black"/>
<path d="M0 12165L95.9719 12176.5V12317L0 12328.5L0 12165Z" fill="black"/>
<path d="M1277.51 16175.8L596.424 15427.3L1277.51 15638.7V16175.8ZM1277.51 15634.5L593.861 15422.3L1277.51 14776.6V15634.5Z" fill="black" stroke="white" stroke-width="4"/>
<path d="M993.047 15389L1276.03 15110.5V15488L993.047 15389Z" fill="white" stroke="white"/>
<path fill-rule="evenodd" clip-rule="evenodd" d="M1279.6 8140L932.849 8246V9506.5L1279.6 9635V8140ZM1168 8215L1012.56 8259V8652H1168V8215ZM1012.56 8672H1168V9065H1012.56V8672ZM1168 9085H1012.56V9478L1168 9533V9085Z" fill="#C4C4C4"/>
<path d="M932.351 8258L891 8271.5V9477.5L933.347 9498.5" stroke="#030000" stroke-width="4"/>
<path d="M904.451 8268L904.452 9487" stroke="black" stroke-width="2"/>
<path d="M917.405 8262L917.405 9491" stroke="black" stroke-width="2"/>
<path d="M1011.99 8259L1167.43 8215V8652H1011.99V8259Z" fill="black"/>
<rect x="1012" y="8672" width="155.439" height="393" fill="black"/>
<path d="M1011.99 9085H1167.43V9533L1011.99 9478V9085Z" fill="black"/>
<defs>
<linearGradient id="paint0_linear" x1="378.136" y1="5055" x2="378.136" y2="6474.5" gradientUnits="userSpaceOnUse">
<stop stop-color="#FA00FF"/>
<stop offset="1" stop-color="#00FFF0"/>
</linearGradient>
<radialGradient id="paint1_angular" cx="0" cy="0" r="1" gradientUnits="userSpaceOnUse" gradientTransform="translate(378.136 5764.75) rotate(90) scale(709.75 376.144)">
<stop/>
<stop offset="1" stop-opacity="0"/>
</radialGradient>
</defs>
</svg>
